<svg width="18" height="17" viewBox="0 0 18 17" fill="none" xmlns="http://www.w3.org/2000/svg">
<path d="M4.20109 5.05537V17H1.01071V5.05537H4.20109ZM0.811998 1.94226C0.811998 1.4786 0.97391 1.0959 1.29773 0.794157C1.62155 0.492414 2.05577 0.341542 2.60038 0.341542C3.13763 0.341542 3.56817 0.492414 3.89199 0.794157C4.22317 1.0959 4.38876 1.4786 4.38876 1.94226C4.38876 2.40591 4.22317 2.78861 3.89199 3.09035C3.56817 3.3921 3.13763 3.54297 2.60038 3.54297C2.05577 3.54297 1.62155 3.3921 1.29773 3.09035C0.97391 2.78861 0.811998 2.40591 0.811998 1.94226ZM9.94158 7.60547V17H6.76224V5.05537H9.74287L9.94158 7.60547ZM9.47793 10.6082H8.61686C8.61686 9.72503 8.73093 8.9302 8.95908 8.22368C9.18722 7.50979 9.50737 6.90263 9.91951 6.40217C10.3316 5.89436 10.8211 5.50798 11.3877 5.24304C11.9618 4.97073 12.6021 4.83458 13.3086 4.83458C13.8679 4.83458 14.3794 4.91553 14.8431 5.07745C15.3067 5.23936 15.7042 5.49694 16.0353 5.8502C16.3739 6.20346 16.6315 6.6708 16.8081 7.25221C16.9921 7.83362 17.0841 8.54382 17.0841 9.38281V17H13.8827V9.37177C13.8827 8.84188 13.8091 8.42974 13.6619 8.13536C13.5147 7.84098 13.2976 7.63491 13.0105 7.51715C12.7309 7.39204 12.385 7.32948 11.9728 7.32948C11.546 7.32948 11.1743 7.41412 10.8579 7.58339C10.5488 7.75266 10.2912 7.98817 10.0851 8.28991C9.88639 8.5843 9.73552 8.9302 9.63248 9.32762C9.52945 9.72503 9.47793 10.1519 9.47793 10.6082Z" fill="white"/>
</svg>
