<svg width="26" height="20" viewBox="0 0 26 20" fill="none" xmlns="http://www.w3.org/2000/svg">
<path d="M12.6241 19.0435H12.5992C12.5222 19.0435 4.81528 19.028 2.87085 18.4794C2.34546 18.3324 1.86647 18.0445 1.48184 17.6447C1.0972 17.2448 0.820403 16.747 0.679164 16.2011C0.329519 14.1518 0.160674 12.0735 0.17473 9.99228C0.165703 7.90762 0.339118 5.82643 0.692832 3.7744C0.838061 3.22758 1.11613 2.72871 1.50036 2.32568C1.88459 1.92265 2.36208 1.62899 2.887 1.47287C4.778 0.956543 12.2725 0.956543 12.5905 0.956543H12.6166C12.6949 0.956543 20.4217 0.972033 22.3462 1.52063C23.4135 1.82139 24.2472 2.68753 24.5354 3.79634C24.8957 5.85391 25.066 7.94116 25.0411 10.0323C25.0498 12.1144 24.876 14.193 24.5218 16.2424C24.3787 16.7877 24.1008 17.2847 23.7156 17.6839C23.3305 18.0831 22.8516 18.3707 22.3264 18.5181C20.4378 19.0383 12.9421 19.0435 12.6241 19.0435ZM10.1392 6.12627L10.133 13.8712L16.6086 9.99873L10.1392 6.12627Z" fill="white"/>
</svg>
