<svg width="24" height="20" viewBox="0 0 24 20" fill="none" xmlns="http://www.w3.org/2000/svg">
<path d="M21.0796 0.798828H2.34217C1.05398 0.798828 0.0117109 1.83399 0.0117109 3.09918L0 16.9013C0 18.1665 1.05398 19.2016 2.34217 19.2016H21.0796C22.3678 19.2016 23.4217 18.1665 23.4217 16.9013V3.09918C23.4217 1.83399 22.3678 0.798828 21.0796 0.798828ZM19.9085 16.9013H3.51326C2.86916 16.9013 2.34217 16.3837 2.34217 15.7511V5.39953L10.4695 10.3913C11.2307 10.8629 12.191 10.8629 12.9522 10.3913L21.0796 5.39953V15.7511C21.0796 16.3837 20.5526 16.9013 19.9085 16.9013ZM11.7109 8.85005L2.34217 3.09918H21.0796L11.7109 8.85005Z" fill="white"/>
</svg>
