<svg width="20" height="20" viewBox="0 0 20 20" fill="none" xmlns="http://www.w3.org/2000/svg">
<path d="M18.624 19.8284C16.2761 19.8284 13.9875 19.3049 11.7583 18.258C9.52829 17.2118 7.55349 15.8286 5.83387 14.1082C4.11352 12.3886 2.73024 10.4138 1.68405 8.1838C0.637137 5.95455 0.113678 3.66597 0.113678 1.31805C0.113678 0.990429 0.222884 0.717415 0.441295 0.499003C0.659706 0.280592 0.93272 0.171387 1.26034 0.171387H5.68316C5.93798 0.171387 6.16549 0.253291 6.3657 0.417099C6.56591 0.580908 6.68422 0.790218 6.72062 1.04503L7.43045 4.86723C7.46686 5.12204 7.46249 5.35392 7.41735 5.56287C7.37148 5.77254 7.26664 5.95928 7.10284 6.12309L4.4819 8.79863C5.24634 10.1091 6.20189 11.3377 7.34855 12.4843C8.49521 13.631 9.76017 14.6229 11.1434 15.4602L13.7098 12.8938C13.8736 12.73 14.0876 12.607 14.3519 12.5247C14.6155 12.4432 14.8746 12.4206 15.1294 12.457L18.897 13.2215C19.1519 13.2761 19.3612 13.3987 19.525 13.5895C19.6888 13.781 19.7707 14.0041 19.7707 14.2589V18.6817C19.7707 19.0094 19.6615 19.2824 19.4431 19.5008C19.2247 19.7192 18.9516 19.8284 18.624 19.8284Z" fill="white"/>
</svg>
