<svg width="23" height="22" viewBox="0 0 23 22" fill="none" xmlns="http://www.w3.org/2000/svg">
<path d="M22.3734 4.82163L19.2486 8.01156C18.6278 15.4194 12.5232 21.174 5.22867 21.174C3.72837 21.174 2.48675 20.9302 1.54519 20.4533C0.789869 20.0612 0.479464 19.6479 0.396689 19.5207C0.328203 19.4142 0.284072 19.2932 0.267585 19.1668C0.251097 19.0403 0.262678 18.9117 0.301464 18.7905C0.340251 18.6693 0.405243 18.5586 0.491598 18.4667C0.577954 18.3747 0.683446 18.304 0.800216 18.2596C0.82091 18.249 3.26277 17.2952 4.84583 15.4618C3.86406 14.7458 3.00115 13.8727 2.29016 12.8759C0.872644 10.9048 -0.627649 7.48167 0.272527 2.37355C0.300825 2.22169 0.368638 2.08047 0.468804 1.96482C0.56897 1.84917 0.697771 1.76337 0.841603 1.71648C0.985894 1.66809 1.1404 1.66128 1.28822 1.69679C1.43603 1.73231 1.57147 1.80878 1.6797 1.91784C1.71074 1.96023 5.15624 5.4363 9.3674 6.55967V5.9132C9.37147 5.241 9.50476 4.5762 9.75967 3.95676C10.0146 3.33732 10.3861 2.77537 10.8531 2.303C11.32 1.83063 11.8732 1.4571 12.4811 1.20372C13.089 0.950339 13.7397 0.822083 14.396 0.826271C15.2573 0.838854 16.1008 1.07975 16.8443 1.52549C17.5877 1.97123 18.2058 2.60662 18.6382 3.36974H21.7836C21.947 3.36921 22.1069 3.41825 22.2432 3.51066C22.3795 3.60307 22.486 3.73472 22.5493 3.88903C22.6089 4.04563 22.624 4.21633 22.5929 4.38137C22.5618 4.54641 22.4857 4.69905 22.3734 4.82163Z" fill="white"/>
</svg>
